<?xml version="1.0" encoding="UTF-8"?>
<svg id="Layer_1" data-name="Layer 1" xmlns="http://www.w3.org/2000/svg" viewBox="0 0 388 129.03">
  <defs>
    <style>
      .cls-1, .cls-2 {
        fill: #fff;
      }

      .cls-2 {
        fill-rule: evenodd;
      }
    </style>
  </defs>
  <path class="cls-2" d="M106.72,52.99s-.04-.04-.09-.04c-8.16-12.35-22-19.69-36.84-16.59-18.16,3.8-29.73,21.74-25.88,39.94,3.88,18.24,21.78,29.99,39.94,26.15,5.72-1.18,10.78-3.75,14.93-7.33-6.37,8.16-15.5,14.14-26.36,16.45-1.53,.31-3.01,.57-4.54,.7-11.7-1.05-22.57-5.41-31.6-12.13-5.94-7.64-9.69-16.94-10.43-27.02-1.75-23.7,11-43.35,31.78-51.73,21.69-2.44,42.56,10.74,49.11,31.6Z"/>
  <path class="cls-2" d="M14.57,27.54h0c1.62-4.34,4.15-8.33,7.62-11.4C32.38,7.12,45.58,1.24,60.27,.17c1.62-.09,3.23-.17,4.8-.17,23.31,0,43.21,12.66,54.43,31.69-10.21-10.3-22.83-16.81-39.02-16.81-1.53,0-3.1,.09-4.67,.17-10.17,.74-19.12,3.62-26.67,8.12-17.37,10.39-27.06,29.29-25.49,50.11,.61,7.9,2.92,15.32,6.63,21.83-11-10.48-18.25-24.88-19.47-40.99-.65-9.12,.61-18.07,3.75-26.58Z"/>
  <path class="cls-2" d="M12.52,26.8c-3.14,8.51-4.58,17.81-3.88,27.46,1.44,19.64,11.48,36.62,26.15,47.58,2.31,1.75,4.8,3.32,7.33,4.71,3.58,2.01,7.33,3.67,11.26,4.93,.07,.02,.07,.02,.13,.04,6.37,2.1,13.18,3.23,20.21,3.23,1.62,0,3.23-.09,4.85-.17,18.42-1.4,34.48-10.26,45.44-23.44-4.76,10.48-12.35,19.82-22.61,26.71-11.13,7.55-23.83,11.17-36.4,11.17-20.73,0-41.07-9.86-53.6-28.15-26.16-38.2,.92-73.76,1.13-74.08Z"/>
  <path class="cls-1" d="M62.93,88.13h15.19c13.77,0,21.12-9.02,21.12-20.77s-7.18-20.06-20.53-20.06h-15.78v40.82h0Zm7.95-33.64h7.48c8.72,0,12.82,5.87,12.82,13.11s-4.21,13.35-13.05,13.35h-7.24v-26.46h0Z"/>
  <path class="cls-1" d="M116.64,72.11l5.7-17.21,5.58,17.21h-11.27Zm22.22,32.46h85.55v-6.31h-79.41l-17.33-50.95h-10.32l-14.09,40.91h8.22l2.96-9.41h15.66l8.76,25.76h0Z"/>
  <path class="cls-1" d="M176.71,47.31h-31.86l-1.9,7.24h13.71v33.58h7.95V54.54h12.1v-7.24h0Z"/>
  <path class="cls-1" d="M178.59,88.13h8.07l3.09-9.32h15.66l3.03,9.32h8.43l-13.88-40.82h-10.32l-14.06,40.82Zm13.35-16.02l5.7-17.21,5.58,17.21h-11.27Z"/>
  <path class="cls-1" d="M224.51,88.13h7.95v-16.97h13.35l1.9-7.18h-15.25v-9.43h17.68l1.96-7.24h-27.59v40.82Z"/>
  <path class="cls-1" d="M259.41,88.13h24.92l1.84-7.24h-18.81V47.31h-7.95v40.82Z"/>
  <path class="cls-1" d="M309.35,53.54c9.14,0,13.95,6.94,13.95,14.06s-4.81,14.3-13.95,14.3-13.94-7-13.94-14.3,4.81-14.06,13.94-14.06h0Zm0-7.3c-14.42,0-22.07,10.03-22.07,21.36s7.65,21.6,22.07,21.6,22.07-10.15,22.07-21.6-7.65-21.36-22.07-21.36Z"/>
  <path class="cls-1" d="M344.45,88.13h9.02l8.07-29.07,7.95,29.07h9.2l9.32-40.82h-8.25l-6.05,29.61-7.89-29.61h-8.13l-7.95,29.61-5.99-29.61h-8.48l9.2,40.82h0Z"/>
  <g>
    <path class="cls-1" d="M233.68,116.81l1.31-2.94c1.63,1.31,4.22,2.24,6.72,2.24,3.17,0,4.51-1.13,4.51-2.65,0-4.39-12.1-1.51-12.1-9.07,0-3.29,2.62-6.08,8.2-6.08,2.44,0,5,.64,6.78,1.8l-1.19,2.94c-1.83-1.08-3.84-1.6-5.61-1.6-3.14,0-4.42,1.22-4.42,2.76,0,4.33,12.07,1.51,12.07,8.99,0,3.26-2.65,6.05-8.23,6.05-3.17,0-6.34-.99-8.03-2.44Z"/>
    <path class="cls-1" d="M268.23,115.79v3.17h-15.27v-20.36h14.86v3.17h-11.08v5.29h9.83v3.11h-9.83v5.61h11.49Z"/>
    <path class="cls-1" d="M270.18,108.78c0-6.08,4.65-10.47,10.91-10.47,3.32,0,6.17,1.19,8.06,3.4l-2.44,2.3c-1.48-1.6-3.32-2.38-5.44-2.38-4.22,0-7.27,2.97-7.27,7.15s3.05,7.15,7.27,7.15c2.12,0,3.96-.79,5.44-2.41l2.44,2.33c-1.89,2.21-4.74,3.4-8.09,3.4-6.22,0-10.88-4.39-10.88-10.47Z"/>
    <path class="cls-1" d="M291.73,110.09v-11.49h3.78v11.34c0,4.19,1.89,5.99,5.18,5.99s5.15-1.8,5.15-5.99v-11.34h3.72v11.49c0,5.93-3.34,9.16-8.9,9.16s-8.93-3.23-8.93-9.16Z"/>
    <path class="cls-1" d="M327.44,118.96l-4.16-5.96c-.26,.03-.52,.03-.79,.03h-4.6v5.93h-3.78v-20.36h8.38c5.35,0,8.67,2.73,8.67,7.24,0,3.08-1.57,5.35-4.33,6.43l4.68,6.69h-4.07Zm-5.12-17.16h-4.42v8.11h4.42c3.32,0,5.03-1.51,5.03-4.07s-1.72-4.04-5.03-4.04Z"/>
    <path class="cls-1" d="M334.66,98.6h3.78v20.36h-3.78v-20.36Z"/>
    <path class="cls-1" d="M347.34,101.8h-6.75v-3.2h17.28v3.2h-6.75v17.16h-3.78v-17.16Z"/>
    <path class="cls-1" d="M368.48,111.77v7.18h-3.78v-7.13l-8-13.23h4.04l5.96,9.92,6.02-9.92h3.72l-7.97,13.17Z"/>
  </g>
</svg>