<?xml version="1.0" encoding="UTF-8" standalone="no"?>
<svg
   viewBox="0 0 2100 500"
   version="1.1"
   id="svg2"
   xmlns="http://www.w3.org/2000/svg">
  <defs
     id="defs1">
    <style>
      .cls-1{fill:#ffffffe0}
    </style>
  </defs>
  <g
     id="ekg">
    <path
       d="m 0,273.6 c 0.8,-0.6 -0.3,-1.4 0.6,-2.3 14.6,-14.6 18.9,1.8 29.8,3.2 8.2,1.1 14,-8 22.3,-8.8 14.6,-1.5 15.1,8.7 24.7,16.1 13.5,-11 23.4,-202.3 23.4,-202.3 0,0 11.5,171.9 13.3,238.6 1.6,-14.4 1.4,-36.9 10.1,-49.7 10.5,-15.3 23.2,-17.8 29.6,-37.5 4.6,-13.9 16,-49.9 32.5,-25.2 10,15 4.8,53.8 24.4,62.1 4,1.7 13.6,-1.7 19.1,-1.8 5.5,-0.1 7.5,3.3 12.1,2.1 4.6,-1.2 7.4,-6.9 11.7,-8.3 13.2,-4.3 14.3,2.9 20.9,13.1 8.9,13.5 7.2,11.9 19.2,2.8 5.9,-4.5 15.3,-12.1 23.5,-10.5 10,1.9 10.4,19.2 16.9,20.2 4.5,0.6 7.6,-7.6 13.1,-8.6 14.9,-2.7 18,13.6 24,23.1 8.9,-11.3 9.2,-33.2 10.8,-46.5 3.4,-27.1 12.8,-147.5 12.8,-147.5 0,0 11.5,137.6 13.5,196.5 1.7,-13.1 2.3,-43.4 11.2,-54.3 6.6,-8.2 19.1,-10.5 26.5,-17.7 10.9,-10.7 9.5,-27.1 17.4,-39.9 26.5,-43.4 37.6,60.4 41,76.4 1.2,5.8 1.7,16.8 7.6,20 3,1.7 11.8,-6.8 21.4,-1 9.6,5.8 23.1,-0.7 34.7,0.4 13.5,1.3 16.6,-1.6 26.9,-10.6 5.5,-4.8 9.6,-12.4 18.4,-11.4 12.5,1.3 11.4,17.4 21.1,21.6 13.7,5.9 13.9,-9.9 24.9,-12.1 11,-2.2 15.3,12.4 22.2,19.4 11.4,-14.8 9.1,-48.4 10.4,-66.1 2.8,-38.2 11.8,-174.5 11.8,-174.5 0,0 10.9,186.7 13,265.3 1.6,-13.8 1,-38.9 10.8,-50.5 4.3,-5.1 12.7,-3.8 16.1,-7.3 3.4,-3.5 2.8,-7.4 4.4,-11.1 6.8,-14.9 18.3,-37.7 34,-17.8 9.2,11.7 4.2,37.6 18.8,44.6 8.2,3.9 22.3,-2 31.6,-1.8 4.8,0.1 7.3,3.1 12.1,1.4 4.8,-1.7 6.7,-9.7 10.8,-12.5 12.6,-8.5 14.2,-0.9 23,9.2 8.8,10.1 10.7,9 22.1,0.7 6.4,-4.6 10.1,-10.3 19.1,-10.4 4.9,0 10.2,5.3 14.5,4.8 9.6,-1.1 6.1,-5 12.9,-9.1 28.3,-17.3 27.9,17.9 37.1,38.4 14.7,1.2 22.3,-182.4 22.3,-182.4 0,0 10,172.3 11.7,236.2 1.7,-14.8 1.6,-37.1 10.5,-50.2 2.9,-4.4 8.7,-7.1 12.6,-10.5 12.4,-10.8 14,-19.7 19.3,-35 5.3,-15.3 18.8,-38.4 34.5,-17.7 6.4,8.4 4,11.2 11.9,17.1 11.7,8.8 11.2,3.3 24.1,3.5 4.7,0.1 8.6,3.6 13.4,3.4 4.8,-0.2 10.4,-4.5 16.1,-4 12.7,1.1 12.6,9.8 19.6,18.4 10.7,13.2 3.8,5.9 15.7,2.1 13.8,-4.4 7.7,3.5 19.6,5.3 11.9,1.8 3.7,-6 12.3,-11.3 12.5,-7.6 14.2,7.9 22.8,11 19.5,7 16.7,-31.7 39.5,-4.8 8.3,-19.7 7,-46.1 8.3,-66.8 2.3,-38.4 9.5,-114.8 9.5,-114.8 0,0 8.8,175.8 10.5,239.8 1.6,-14.5 2.6,-54.7 11.2,-67.4 10.5,-15.3 23.4,-18.1 29.7,-37.5 4.6,-14.1 16,-49.9 32.4,-25.2 11.5,17.2 4.6,48 23.2,61.4 7.3,-6.6 7,-19.3 20.1,-14.2 5,2 5.4,11.5 9.5,13.2 7,2.8 0.1,0.2 8.2,-1.8 8.1,-2 8.6,-10.3 19.1,-4.5 3.3,1.7 6.2,10.1 8.2,13.1 8.1,11.8 7.4,12 18.5,3.4 7.9,-6.2 19.1,-14.9 29.7,-9.2 10.6,5.7 3.8,20.7 15.6,13 8.4,-5.4 3.6,-23.1 16.7,-26.4 17.3,-4.2 19.3,21.3 30.6,27.2 13.2,-11.6 15.5,-44.2 18.3,-60 2.1,-12.4 16.9,-92.1 16.9,-92.1 0,0 11,178.9 14.1,239.9 2.3,-18.7 15.9,-169.8 53.6,-144.9 11.6,7.6 8.3,26.9 17.3,37.2 9,10.3 12.3,5.3 25.3,5 5.2,-0.2 8.5,2.4 13.7,1.2 5.2,-1.2 10.2,-10.5 16.8,-9.9 12.2,1 14.1,21.6 23.1,27.6 3.6,-2.6 6.5,-6.3 10.3,-7.9 l 0,12.6 c -3.0296,2.99972 -7.137,4.65708 -11.4,4.6 -6.1,-0.4 -10.9,-9.7 -13.8,-13.9 -1.6,-2.2 -6.7,-13.5 -8.3,-13.8 -1.6,-0.3 -5.3,4.7 -7.4,5 -7.2,0.9 -10.5,5.3 -19.3,5.3 -4.6,0.1 -10.5,-0.1 -14.7,-0.3 -16.4,-0.4 -22.3,-8.3 -28.8,-24.6 -2.2,-5.6 -3.4,-18.8 -9,-21.1 -11.6,-4.8 -15.6,17.3 -18,25 -6.2,20.1 -35.4,174.9 -35.4,174.9 0,0 -10,-201.3 -11.8,-237.3 -1.8,13.8 -7.8,96.6 -31.5,96.6 -14.1,0 -18.1,-33.5 -31.1,-25.3 -10.4,6.5 -4.5,36.5 -25,27.2 -14.1,-6.5 -5.9,-24.5 -25.5,-12.9 -6.9,4 -12.8,16 -21.8,15.2 -6.4,-0.6 -10.5,-9.2 -13.7,-13.9 l -8.4,-13.8 c -2.592,1.42226 -5.0372,3.09705 -7.3,5 -8.1,0.9 -6.7,8.8 -16.1,5.3 -6.5,-2.3 -7.1,-12.7 -12.4,-16.5 -4.6,4.7 -5.8,15 -13.6,15.9 -10.1,1.2 -16.5,-14.5 -19.6,-21.7 -5.7,-13 -3.8,-41 -15.5,-48.9 -7.8,2.8 -10.4,19.3 -12.6,26 -5.3,16.3 -10.5,23.5 -23.2,35.3 -12.7,11.8 -13,23 -15.4,41 -2.4,18 -11.3,99.5 -12.5,99.8 -3.6,1.2 -6.7,-85.4 -7.7,-120.9 -0.7,-25.9 -2.3,-64.7 -3,-90.6 -1,17 3.7,70.9 -8.3,85.1 -12,14.2 -10.8,-1.1 -23.4,-5.3 -7.8,8.6 -7,21.4 -23.1,17.1 -8.5,-2.3 -10.6,-12.3 -18.1,-14.9 -5.6,5.2 -4,14.2 -13.6,15.7 -8,1.1 -13.4,-9.5 -19.1,-8.9 -5.7,0.6 -8.1,10.7 -17.2,7.9 -11.2,-3.4 -10.4,-21.2 -19.2,-25.6 -6.4,-3.3 -16.6,2.2 -24.6,2.4 -3.6,0.1 -12.1,-1.7 -15.6,-2 -3.5,-0.3 -4.7,2.9 -7.2,2.5 -4.7,-0.7 -19.2,-8 -22.6,-11.7 -3.4,-3.7 -3.6,-16.9 -10.5,-19.8 -12.8,-5.4 -16.5,26.2 -19.4,33.6 -6.6,16.8 -22.5,22 -30.3,36.3 -8.5,15.9 -16.9,132.7 -16.9,132.7 0,0 -8,-78.3 -8.8,-103.8 -1,-39.13333 -2.0667,-78.16667 -3.2,-117.1 -1.5,20.1 0.8,62.6 -13.1,79.6 -21.7,26.4 -19.4,-35.8 -31.5,-39.4 -6.7,-2 -15.7,15.3 -25.7,15.8 -14.3,0.5 -14.3,-6.9 -27.8,2.2 -4.5,3.1 -9.9,10.4 -15.3,11.3 -13.6,2.5 -21.4,-13 -28.5,-22.4 -5.1,4.7 -8.7,13.5 -15,16.6 -8.7,4.3 -13.2,-1.9 -21.7,-1.8 -20,0.1 -32.4,10.2 -43,-14.3 -3,-7.1 -4.1,-36.4 -13.4,-36.3 -7,0.1 -11.2,13.8 -13.2,18.4 -5.1,12.1 -4.8,12.1 -13.6,19.1 -8.8,7 -8,2.4 -12,12 -5.4,13.4 -21.5,124.7 -21.5,124.7 0,0 -2.5,-92.1 -3.2,-117 -1,-37.4 -2,-74.9 -3.1,-112.3 -1.3,28 -2.5,56.2 -5.9,84 -1.1,8.7 -1.6,36.5 -12.4,41 -10.8,4.5 -12.2,-9.2 -18.5,-14 -11,-8.2 -1.4,-3 -13.3,3.5 -9.5,5.3 -17.4,7.8 -27,0 -9.6,-7.8 -7,-19.3 -19.6,-15.5 -6.2,1.9 -12.3,14.3 -18.6,17.6 -11.6,6.1 -17.5,-0.8 -27.3,-0.9 -8.2,0 -15.5,4.4 -23.9,4.5 -3.9,0.1 -7.9,-3.4 -11.9,-3.5 -4,-0.1 -5.7,3.8 -9,3.6 -20.9,-1.4 -21.3,-28.8 -24,-45.2 -2.3,-14.1 -2.6,-55.5 -15.5,-64.2 -6.6,2.4 -9.8,17.4 -11.6,22.7 -4.5,13.8 -6.5,22.1 -18.9,31 -14.7,10.7 -20.6,9.8 -24.9,26.5 -7.8,30 -14.3,101.9 -14.3,101.9 0,0 -8.2,-83.5 -8.8,-101.4 l -2.4,-70 c -0.9,12.8 -1.2,113.1 -25.6,111.5 -9.9,-0.7 -8.7,-15.6 -14.8,-20.1 -10.9,-7.9 -4.2,-0.8 -11.6,1.2 -13.9,3.7 -11,3.6 -21.1,-5.7 -8.1,-7.3 -0.3,-13.6 -15.9,-7.8 -7.6,2.9 -12.2,14.3 -19.9,15.9 -11.3,2.5 -14.7,-8.6 -20.7,-16.3 -11,-13.8 -4.8,-6.9 -19.3,-1.3 -9.4,3.6 -15.5,-0.4 -24.9,-0.6 -9.4,-0.2 -10.3,5.2 -19.9,-2.1 -6.6,-5 -10.6,-15.8 -13.2,-23.3 -4.1,-11.6 -2.9,-36.9 -13.6,-44 -8,2.9 -11.3,22.7 -13.4,29.1 -2.8,8.1 -4.3,14.7 -10,21.5 -5.7,6.8 -15.7,10 -20.2,16.9 -7.3,11.3 -9.7,29.7 -11.1,42.3 -1.4,12.6 -10.5,88.5 -10.5,88.5 0,0 -7,-145.6 -8.8,-211.2 -0.9,13.6 -1.3,109.2 -30.4,95.7 -10.2,-4.7 -7.3,-15.2 -21.1,-13 -7,1.1 -10.4,9.5 -19,8.5 -6.3,-0.7 -9.2,-8.7 -14.3,-9.3 -7.2,-0.9 -10.1,6.5 -16.8,8.3 z"
       class="cls-1"
        />
  </g>
</svg>
